<svg width="400" height="300" viewBox="0 0 400 300" fill="none" xmlns="http://www.w3.org/2000/svg">
  <rect width="400" height="300" fill="#E5E7EB"/>
  <path d="M160 130C160 124.477 164.477 120 170 120H230C235.523 120 240 124.477 240 130V170C240 175.523 235.523 180 230 180H170C164.477 180 160 175.523 160 170V130Z" fill="#D1D5DB"/>
  <circle cx="180" cy="140" r="10" fill="#9CA3AF"/>
  <path d="M160 165L185 150L200 160L225 140L240 155V170C240 175.523 235.523 180 230 180H170C164.477 180 160 175.523 160 170V165Z" fill="#9CA3AF"/>
</svg>
